<?xml version="1.0" encoding="UTF-8" standalone="no"?>
<!-- Created with Inkscape (http://www.inkscape.org/) -->

<svg
   xmlns:dc="http://purl.org/dc/elements/1.1/"
   xmlns:cc="http://creativecommons.org/ns#"
   xmlns:rdf="http://www.w3.org/1999/02/22-rdf-syntax-ns#"
   xmlns:svg="http://www.w3.org/2000/svg"
   xmlns="http://www.w3.org/2000/svg"
   xmlns:sodipodi="http://sodipodi.sourceforge.net/DTD/sodipodi-0.dtd"
   xmlns:inkscape="http://www.inkscape.org/namespaces/inkscape"
   id="svg2"
   version="1.1"
   inkscape:version="0.48.3.1 r9886"
   width="1055.9055"
   height="531.49606"
   xml:space="preserve"
   sodipodi:docname="track-diagram-overlay.svg"><metadata
     id="metadata8"><rdf:RDF><cc:Work
         rdf:about=""><dc:format>image/svg+xml</dc:format><dc:type
           rdf:resource="http://purl.org/dc/dcmitype/StillImage" /><dc:title></dc:title></cc:Work></rdf:RDF></metadata><defs
     id="defs6"><clipPath
       clipPathUnits="userSpaceOnUse"
       id="clipPath16"><path
         d="m 105.59055,42.519685 654.66142,0 0,340.157485 -654.66142,0 0,-340.157485 z"
         id="path18" /></clipPath><clipPath
       clipPathUnits="userSpaceOnUse"
       id="clipPath26"><path
         d="m 105.59055,42.519685 654.66142,0 0,340.157485 -654.66142,0 0,-340.157485 z"
         id="path28" /></clipPath><clipPath
       clipPathUnits="userSpaceOnUse"
       id="clipPath36"><path
         d="m 105.59055,42.519685 654.66142,0 0,340.157485 -654.66142,0 0,-340.157485 z"
         id="path38" /></clipPath><clipPath
       clipPathUnits="userSpaceOnUse"
       id="clipPath46"><path
         d="m 105.59055,42.519685 654.66142,0 0,340.157485 -654.66142,0 0,-340.157485 z"
         id="path48" /></clipPath><clipPath
       clipPathUnits="userSpaceOnUse"
       id="clipPath64"><path
         d="m 105.59055,42.519685 654.66142,0 0,340.157485 -654.66142,0 0,-340.157485 z"
         id="path66" /></clipPath><clipPath
       clipPathUnits="userSpaceOnUse"
       id="clipPath82"><path
         d="m 105.59055,42.519685 654.66142,0 0,340.157485 -654.66142,0 0,-340.157485 z"
         id="path84" /></clipPath><clipPath
       clipPathUnits="userSpaceOnUse"
       id="clipPath100"><path
         d="m 105.59055,42.519685 654.66142,0 0,340.157485 -654.66142,0 0,-340.157485 z"
         id="path102" /></clipPath><clipPath
       clipPathUnits="userSpaceOnUse"
       id="clipPath118"><path
         d="m 105.59055,42.519685 654.66142,0 0,340.157485 -654.66142,0 0,-340.157485 z"
         id="path120" /></clipPath><clipPath
       clipPathUnits="userSpaceOnUse"
       id="clipPath136"><path
         d="m 105.59055,42.519685 654.66142,0 0,340.157485 -654.66142,0 0,-340.157485 z"
         id="path138" /></clipPath><clipPath
       clipPathUnits="userSpaceOnUse"
       id="clipPath154"><path
         d="m 105.59055,42.519685 654.66142,0 0,340.157485 -654.66142,0 0,-340.157485 z"
         id="path156" /></clipPath><clipPath
       clipPathUnits="userSpaceOnUse"
       id="clipPath172"><path
         d="m 105.59055,42.519685 654.66142,0 0,340.157485 -654.66142,0 0,-340.157485 z"
         id="path174" /></clipPath><clipPath
       clipPathUnits="userSpaceOnUse"
       id="clipPath190"><path
         d="m 105.59055,42.519685 654.66142,0 0,340.157485 -654.66142,0 0,-340.157485 z"
         id="path192" /></clipPath><clipPath
       clipPathUnits="userSpaceOnUse"
       id="clipPath212"><path
         d="m 105.59055,42.519685 654.66142,0 0,340.157485 -654.66142,0 0,-340.157485 z"
         id="path214" /></clipPath><clipPath
       clipPathUnits="userSpaceOnUse"
       id="clipPath228"><path
         d="m 105.59055,42.519685 654.66142,0 0,340.157485 -654.66142,0 0,-340.157485 z"
         id="path230" /></clipPath><clipPath
       clipPathUnits="userSpaceOnUse"
       id="clipPath244"><path
         d="m 105.59055,42.519685 654.66142,0 0,340.157485 -654.66142,0 0,-340.157485 z"
         id="path246" /></clipPath><clipPath
       clipPathUnits="userSpaceOnUse"
       id="clipPath260"><path
         d="m 105.59055,42.519685 654.66142,0 0,340.157485 -654.66142,0 0,-340.157485 z"
         id="path262" /></clipPath><clipPath
       clipPathUnits="userSpaceOnUse"
       id="clipPath276"><path
         d="m 105.59055,42.519685 654.66142,0 0,340.157485 -654.66142,0 0,-340.157485 z"
         id="path278" /></clipPath><clipPath
       clipPathUnits="userSpaceOnUse"
       id="clipPath292"><path
         d="m 105.59055,42.519685 654.66142,0 0,340.157485 -654.66142,0 0,-340.157485 z"
         id="path294" /></clipPath><clipPath
       clipPathUnits="userSpaceOnUse"
       id="clipPath308"><path
         d="m 105.59055,42.519685 654.66142,0 0,340.157485 -654.66142,0 0,-340.157485 z"
         id="path310" /></clipPath><clipPath
       clipPathUnits="userSpaceOnUse"
       id="clipPath324"><path
         d="m 105.59055,42.519685 654.66142,0 0,340.157485 -654.66142,0 0,-340.157485 z"
         id="path326" /></clipPath><clipPath
       clipPathUnits="userSpaceOnUse"
       id="clipPath340"><path
         d="m 105.59055,42.519685 654.66142,0 0,340.157485 -654.66142,0 0,-340.157485 z"
         id="path342" /></clipPath><clipPath
       clipPathUnits="userSpaceOnUse"
       id="clipPath708"><path
         d="m 105.59055,42.519685 654.66142,0 0,340.157485 -654.66142,0 0,-340.157485 z"
         id="path710" /></clipPath><clipPath
       clipPathUnits="userSpaceOnUse"
       id="clipPath718"><path
         d="m 105.59055,42.519685 654.66142,0 0,340.157485 -654.66142,0 0,-340.157485 z"
         id="path720" /></clipPath><clipPath
       clipPathUnits="userSpaceOnUse"
       id="clipPath728"><path
         d="m 105.59055,42.519685 654.66142,0 0,340.157485 -654.66142,0 0,-340.157485 z"
         id="path730" /></clipPath><clipPath
       clipPathUnits="userSpaceOnUse"
       id="clipPath738"><path
         d="m 105.59055,42.519685 654.66142,0 0,340.157485 -654.66142,0 0,-340.157485 z"
         id="path740" /></clipPath><filter
       inkscape:collect="always"
       id="filter4732"><feGaussianBlur
         inkscape:collect="always"
         stdDeviation="0.1732255"
         id="feGaussianBlur4734" /></filter><filter
       color-interpolation-filters="sRGB"
       inkscape:collect="always"
       id="filter4732-3"><feGaussianBlur
         inkscape:collect="always"
         stdDeviation="0.1732255"
         id="feGaussianBlur4734-2" /></filter></defs><sodipodi:namedview
     pagecolor="#ffffff"
     bordercolor="#666666"
     borderopacity="1"
     objecttolerance="10"
     gridtolerance="10"
     guidetolerance="10"
     inkscape:pageopacity="0"
     inkscape:pageshadow="2"
     inkscape:window-width="1301"
     inkscape:window-height="744"
     id="namedview4"
     showgrid="false"
     inkscape:zoom="0.79556631"
     inkscape:cx="1017.5687"
     inkscape:cy="231.20181"
     inkscape:window-x="65"
     inkscape:window-y="24"
     inkscape:window-maximized="1"
     inkscape:current-layer="layer1"
     showguides="true"
     inkscape:guide-bbox="true" /><g
     inkscape:groupmode="layer"
     id="layer1"
     inkscape:label="overlay"
     style="display:inline"><path
       id="path4860"
       style="color:#000000;fill:none;stroke:#8b4513;stroke-width:2.20000005;stroke-linecap:round;stroke-linejoin:miter;stroke-miterlimit:4;stroke-opacity:1;stroke-dasharray:none;stroke-dashoffset:0;marker:none;visibility:visible;display:inline;overflow:visible;enable-background:accumulate"
       d="m 1025.3301,476.68492 -12.5996,5.01683 m 0.9775,-6.71003 10.6446,8.40323"
       inkscape:connector-curvature="0"
       sodipodi:nodetypes="cccc" /><path
       inkscape:connector-curvature="0"
       d="m 1025.7915,269.29726 -11.7448,6.78087 m 0,-6.78087 11.7448,6.78087"
       style="color:#000000;fill:none;stroke:#00008b;stroke-width:1.29999995;stroke-linecap:round;stroke-linejoin:miter;stroke-miterlimit:4;stroke-opacity:1;stroke-dasharray:none;stroke-dashoffset:0;marker:none;visibility:visible;display:inline;overflow:visible;enable-background:accumulate"
       id="path4840"
       sodipodi:nodetypes="cccc" /><path
       inkscape:connector-curvature="0"
       d="m 1025.7915,353.1472 -11.7448,6.78087 m 0,-6.78087 11.7448,6.78087"
       style="fill:none;stroke:#8b4513;stroke-width:2.20000005;stroke-linecap:round;stroke-linejoin:miter;stroke-miterlimit:4;stroke-opacity:1;stroke-dasharray:none"
       id="path4783"
       sodipodi:nodetypes="cccc" /><path
       id="path4780"
       style="color:#000000;fill:none;stroke:#8b4513;stroke-width:1.29999995;stroke-linecap:round;stroke-linejoin:miter;stroke-miterlimit:4;stroke-opacity:1;stroke-dasharray:none;stroke-dashoffset:0;marker:none;visibility:visible;display:inline;overflow:visible;enable-background:accumulate"
       d="m 1025.7915,427.94974 -11.7448,6.78087 m 0,-6.78087 11.7448,6.78087"
       inkscape:connector-curvature="0"
       sodipodi:nodetypes="cccc" /><path
       style="color:#000000;fill:none;stroke:#8b4513;stroke-width:2.20000005;stroke-linecap:round;stroke-linejoin:round;stroke-miterlimit:10;stroke-opacity:1;stroke-dasharray:none;stroke-dashoffset:0;marker:none;visibility:visible;display:inline;overflow:visible;enable-background:accumulate"
       d="m 1019.9191,470.84741 0,-191.32883"
       id="path4690"
       inkscape:connector-curvature="0" /><path
       style="color:#000000;fill:none;stroke:#00008b;stroke-width:2;stroke-linecap:round;stroke-linejoin:round;stroke-miterlimit:10;stroke-opacity:1;stroke-dasharray:none;stroke-dashoffset:0;marker:none;visibility:visible;display:inline;overflow:visible;enable-background:accumulate"
       d="m 1019.9191,279.51858 0,-47.1069"
       id="path4954"
       inkscape:connector-curvature="0" /><path
       style="color:#000000;fill:none;stroke:#00008b;stroke-width:1.5;stroke-linecap:round;stroke-linejoin:round;stroke-miterlimit:10;stroke-opacity:1;stroke-dasharray:4.5, 4.5;stroke-dashoffset:0;marker:none;visibility:visible;display:inline;overflow:visible;enable-background:accumulate"
       d="m 1019.9191,232.41168 0,-20.44261 c 0,-2.33907 -0.8888,-4.33295 -0.8888,-4.33295"
       id="path3790"
       inkscape:connector-curvature="0" /><path
       style="color:#000000;fill:none;stroke:#006400;stroke-width:1.5;stroke-linecap:round;stroke-linejoin:round;stroke-miterlimit:10;stroke-opacity:1;stroke-dasharray:4.5, 4.5;stroke-dashoffset:0;marker:none;visibility:visible;display:inline;overflow:visible;enable-background:accumulate"
       d="m 1034.0289,104.85035 0,49.34611 c 0,3.80349 3.1108,18.10949 3.1108,18.10949"
       id="path3792"
       inkscape:connector-curvature="0"
       sodipodi:nodetypes="ccc" /><path
       sodipodi:nodetypes="cc"
       inkscape:connector-curvature="0"
       id="path4603"
       d="m 1019.0303,479.01769 c 0,0 0.8888,-3.06533 0.8888,-7.7329"
       style="color:#000000;fill:none;stroke:#8b4513;stroke-width:2;stroke-linecap:round;stroke-linejoin:round;stroke-miterlimit:10;stroke-opacity:1;stroke-dasharray:2, 2;stroke-dashoffset:0;marker:none;visibility:visible;display:inline;overflow:visible;enable-background:accumulate" /><path
       sodipodi:nodetypes="csc"
       inkscape:connector-curvature="0"
       id="path4686"
       d="m 1023.0212,266.33893 c 0,-16.44791 10.8719,-20.12881 10.9428,-38.56885 l 0.2221,-57.71052"
       style="color:#000000;fill:none;stroke:#006400;stroke-width:2;stroke-linecap:round;stroke-linejoin:round;stroke-miterlimit:10;stroke-opacity:1;stroke-dasharray:none;stroke-dashoffset:0;marker:none;visibility:visible;display:inline;overflow:visible;enable-background:accumulate" /><rect
       style="color:#000000;fill:none;stroke:#a9a9a9;stroke-width:1px;stroke-linecap:round;stroke-linejoin:miter;stroke-miterlimit:4;stroke-opacity:1;stroke-dasharray:none;stroke-dashoffset:0;marker:none;visibility:visible;display:inline;overflow:visible;enable-background:accumulate"
       id="rect4709"
       width="8.9224472"
       height="15.721052"
       x="1003.5359"
       y="211.36821" /><path
       style="color:#000000;fill:#00008b;fill-opacity:1;stroke:#00008b;stroke-width:2;stroke-opacity:1;marker:none;visibility:visible;display:inline;overflow:visible;enable-background:accumulate"
       d="m 1019.914,237.6875 c -2.6033,0 -4.7188,2.11549 -4.7188,4.71875 0,2.60326 2.1155,4.6875 4.7188,4.6875 2.6032,0 4.7187,-2.08424 4.7187,-4.6875 0,-2.60326 -2.1156,-4.71875 -4.7187,-4.71875 z"
       id="path4711"
       inkscape:connector-curvature="0" /><path
       style="fill:none;stroke:#8b4513;stroke-width:3;stroke-linecap:round;stroke-linejoin:miter;stroke-miterlimit:4;stroke-opacity:1;stroke-dasharray:none;filter:url(#filter4732)"
       d="m 1017.4445,470.69029 4.9493,0"
       id="path4730"
       inkscape:connector-curvature="0"
       sodipodi:nodetypes="cc" /><path
       sodipodi:type="arc"
       style="color:#000000;fill:none;stroke:#8b4513;stroke-width:2;stroke-linecap:round;stroke-linejoin:round;stroke-miterlimit:10;stroke-opacity:1;stroke-dasharray:none;stroke-dashoffset:0;marker:none;visibility:visible;display:inline;overflow:visible;enable-background:accumulate"
       id="path4772"
       sodipodi:cx="1007.1442"
       sodipodi:cy="242.3938"
       sodipodi:rx="4.7136235"
       sodipodi:ry="4.7136235"
       d="m 1011.8578,242.3938 a 4.7136235,4.7136235 0 1 1 -9.4272,0 4.7136235,4.7136235 0 1 1 9.4272,0 z"
       transform="translate(12.774715,209.91338)" /><path
       sodipodi:nodetypes="csccc"
       inkscape:connector-curvature="0"
       id="path4862"
       d="m 1034.0289,172.32269 c 0,-16.44791 -25.4075,-38.95843 -25.5146,-57.3983 l -0.1694,-29.178708 c 0,-7.113946 -10.42273,-11.073412 -10.42273,-18.462998 l 0,-4.163701"
       style="color:#000000;fill:none;stroke:#006400;stroke-width:2;stroke-linecap:round;stroke-linejoin:round;stroke-miterlimit:10;stroke-opacity:1;stroke-dasharray:none;stroke-dashoffset:0;marker:none;visibility:visible;display:inline;overflow:visible;enable-background:accumulate" /><path
       sodipodi:type="arc"
       style="color:#000000;fill:none;stroke:#006400;stroke-width:2;stroke-linecap:round;stroke-linejoin:round;stroke-miterlimit:10;stroke-opacity:1;stroke-dasharray:none;stroke-dashoffset:0;marker:none;visibility:visible;display:inline;overflow:visible;enable-background:accumulate"
       id="path4864"
       sodipodi:cx="1007.1442"
       sodipodi:cy="242.3938"
       sodipodi:rx="4.7136235"
       sodipodi:ry="4.7136235"
       d="m 1011.8578,242.3938 a 4.7136235,4.7136235 0 1 1 -9.4272,0 4.7136235,4.7136235 0 1 1 9.4272,0 z"
       transform="translate(1.088955,-157.12078)" /><path
       sodipodi:nodetypes="cssc"
       inkscape:connector-curvature="0"
       id="path4866"
       d="m 1008.2922,64.611631 c 0,-5.365152 1.7959,-14.634887 12.4965,-14.634887 10.3601,0 13.3973,10.85767 13.3973,14.888275 l 0,40.002521"
       style="fill:none;stroke:#000000;stroke-width:0.80000001;stroke-linecap:butt;stroke-linejoin:miter;stroke-miterlimit:4;stroke-opacity:1;stroke-dasharray:0.80000001, 2.40000004;stroke-dashoffset:0" /><rect
       y="291.0065"
       x="1000.2929"
       height="19.673706"
       width="7.7091141"
       id="rect4872"
       style="color:#000000;fill:none;stroke:#a9a9a9;stroke-width:1;stroke-linecap:round;stroke-linejoin:round;stroke-miterlimit:10;stroke-opacity:1;stroke-dasharray:none;stroke-dashoffset:0;marker:none;visibility:visible;display:inline;overflow:visible;enable-background:accumulate" /><path
       style="color:#000000;fill:none;stroke:#a9a9a9;stroke-width:1;stroke-linecap:round;stroke-linejoin:miter;stroke-miterlimit:4;stroke-opacity:1;stroke-dasharray:1, 2;stroke-dashoffset:0;marker:none;visibility:visible;display:inline;overflow:visible;enable-background:accumulate"
       d="m 1017.3977,256.40954 c 0,-10.92009 -7.7771,-5.58856 -7.7771,-17.36528"
       id="path4874"
       inkscape:connector-curvature="0"
       sodipodi:nodetypes="cc" /><path
       sodipodi:nodetypes="cccc"
       inkscape:connector-curvature="0"
       id="path4876"
       d="m 1008.0494,204.41419 0,42.95747 c 0,11.77672 -3.8433,9.74473 -3.8433,20.66482 l 0,40.0153"
       style="fill:none;stroke:#a9a9a9;stroke-width:1;stroke-linecap:round;stroke-linejoin:miter;stroke-miterlimit:4;stroke-opacity:1;stroke-dasharray:1, 2;stroke-dashoffset:0" /><path
       sodipodi:nodetypes="ccc"
       inkscape:connector-curvature="0"
       id="path4878"
       d="m 1006.3992,238.10729 c 0,-8.09192 -6.1139,-4.80296 -6.1139,-13.43726 l 0,-24.03328"
       style="fill:none;stroke:#a9a9a9;stroke-width:1;stroke-linecap:round;stroke-linejoin:miter;stroke-miterlimit:4;stroke-opacity:1;stroke-dasharray:1, 2;stroke-dashoffset:0" /><path
       style="fill:none;stroke:#a9a9a9;stroke-width:1;stroke-linecap:round;stroke-linejoin:miter;stroke-miterlimit:4;stroke-opacity:1;stroke-dasharray:1, 2;stroke-dashoffset:0"
       d="m 995.29734,68.898474 c 1.57132,2.749805 2.62003,5.745676 2.62003,9.194995 l 0,11.568972"
       id="path4897"
       inkscape:connector-curvature="0"
       sodipodi:nodetypes="ccc" /><path
       style="color:#000000;fill:none;stroke:#006400;stroke-width:1.5;stroke-linecap:round;stroke-linejoin:round;stroke-miterlimit:10;stroke-opacity:1;stroke-dasharray:4.5, 4.5;stroke-dashoffset:0;marker:none;visibility:visible;display:inline;overflow:visible;enable-background:accumulate"
       d="m 1008.2535,64.690191 0,10.369972 c 0,3.470911 2.9853,8.798764 2.9853,8.798764"
       id="path4899"
       inkscape:connector-curvature="0"
       sodipodi:nodetypes="ccc" /><path
       sodipodi:nodetypes="ccc"
       inkscape:connector-curvature="0"
       id="path4992"
       d="m 1005.9817,120.50707 c 1.5713,2.74981 2.62,5.74568 2.62,9.195 l 0,18.35077"
       style="fill:none;stroke:#a9a9a9;stroke-width:1;stroke-linecap:round;stroke-linejoin:miter;stroke-miterlimit:4;stroke-opacity:1;stroke-dasharray:1, 2;stroke-dashoffset:0" /><path
       d="m 1016.9567,265.70322 -4.9994,0"
       style="fill:#000000;fill-opacity:1;fill-rule:nonzero;stroke:#000000;stroke-width:0.625;stroke-linecap:butt;stroke-linejoin:round;stroke-miterlimit:10;stroke-opacity:1;stroke-dasharray:none;display:inline"
       id="path768-1"
       inkscape:connector-curvature="0" /><path
       style="color:#000000;fill:none;stroke:#a9a9a9;stroke-width:1;stroke-linecap:round;stroke-linejoin:miter;stroke-miterlimit:4;stroke-opacity:1;stroke-dasharray:1, 2;stroke-dashoffset:0;marker:none;visibility:visible;display:inline;overflow:visible;enable-background:accumulate"
       d="m 996.91086,270.63049 5.33284,-8.44369 c 2.5577,-2.55774 2.4442,-5.77726 2.4442,-5.77726"
       id="path5033"
       inkscape:connector-curvature="0"
       sodipodi:nodetypes="ccc" /><path
       style="fill:none;stroke:#006400;stroke-width:2;stroke-linecap:round;stroke-linejoin:miter;stroke-miterlimit:4;stroke-opacity:1;stroke-dasharray:none;display:inline;filter:url(#filter4732-3)"
       d="m 1005.7787,64.690192 4.9493,0"
       id="path4730-0"
       inkscape:connector-curvature="0"
       sodipodi:nodetypes="cc" /><path
       sodipodi:nodetypes="cc"
       inkscape:connector-curvature="0"
       id="path5078"
       d="m 1031.5859,105.07023 4.9493,0"
       style="fill:none;stroke:#006400;stroke-width:2;stroke-linecap:round;stroke-linejoin:miter;stroke-miterlimit:4;stroke-opacity:1;stroke-dasharray:none;display:inline;filter:url(#filter4732-3)" /><path
       sodipodi:nodetypes="cc"
       inkscape:connector-curvature="0"
       id="path5118"
       d="m 995.56575,62.804743 4.94935,0"
       style="fill:none;stroke:#006400;stroke-width:2;stroke-linecap:round;stroke-linejoin:miter;stroke-miterlimit:4;stroke-opacity:1;stroke-dasharray:none;display:inline;filter:url(#filter4732-3)" /><path
       style="fill:none;stroke:#a9a9a9;stroke-width:1;stroke-linecap:round;stroke-linejoin:miter;stroke-miterlimit:4;stroke-opacity:1;stroke-dasharray:1, 2;stroke-dashoffset:0"
       d="m 1002.4586,278.09729 c 0,10.92009 -5.21714,5.58856 -5.21714,17.36528 l 0,2.82197"
       id="path5139"
       inkscape:connector-curvature="0"
       sodipodi:nodetypes="ccc" /></g><g
     inkscape:groupmode="layer"
     id="layer2"
     inkscape:label="hidden"
     style="display:none"><path
       transform="translate(13.079705,-157.12078)"
       d="m 1011.8578,242.3938 a 4.7136235,4.7136235 0 1 1 -9.4272,0 4.7136235,4.7136235 0 1 1 9.4272,0 z"
       sodipodi:ry="4.7136235"
       sodipodi:rx="4.7136235"
       sodipodi:cy="242.3938"
       sodipodi:cx="1007.1442"
       id="path4736"
       style="color:#000000;fill:none;stroke:#006400;stroke-width:2;stroke-linecap:round;stroke-linejoin:round;stroke-miterlimit:10;stroke-opacity:1;stroke-dasharray:none;stroke-dashoffset:0;marker:none;visibility:visible;display:inline;overflow:visible;enable-background:accumulate"
       sodipodi:type="arc" /><path
       style="color:#000000;fill:none;stroke:#006400;stroke-width:2;stroke-linecap:round;stroke-linejoin:round;stroke-miterlimit:10;stroke-opacity:1;stroke-dasharray:none;stroke-dashoffset:0;marker:none;visibility:visible;display:inline;overflow:visible;enable-background:accumulate"
       d="m 1034.3337,172.32269 c 0,-16.44791 -13.8309,-19.46215 -13.8877,-37.90224 l -0.2221,-72.165631"
       id="path3802"
       inkscape:connector-curvature="0"
       sodipodi:nodetypes="csc" /><path
       style="fill:none;stroke:#000000;stroke-width:0.80000001;stroke-linecap:butt;stroke-linejoin:miter;stroke-miterlimit:4;stroke-opacity:1;stroke-dasharray:0.8, 1.6;stroke-dashoffset:0"
       d="m 1020.2239,62.41194 c 0,-5.365152 -0.01,-12.435196 7.4687,-12.435196 7.0271,0 6.7982,10.85767 6.7982,14.888275 l 0,40.002521"
       id="path3798"
       inkscape:connector-curvature="0"
       sodipodi:nodetypes="cssc" /></g></svg>